<?xml version="1.0" encoding="UTF-8" standalone="no"?>
<!-- Created with Inkscape (http://www.inkscape.org/) -->

<svg
   width="210mm"
   height="297mm"
   viewBox="0 0 210 297"
   version="1.1"
   id="svg5"
   xmlns="http://www.w3.org/2000/svg"
   xmlns:svg="http://www.w3.org/2000/svg">
  <defs
     id="defs2" />
  <g
     id="layer1">
    <path
       style="fill:none;stroke:#000000;stroke-width:0.39332px;stroke-linecap:butt;stroke-linejoin:miter;stroke-opacity:1"
       d="m 28.337431,130.60821 c 81.475919,359.65764 157.547819,0.91983 157.547819,0.91983"
       id="path680" />
    <path
       style="fill:#000000;stroke:none;stroke-width:0.416784"
       d="M 100.5973,289.71234 C 77.334373,283.84391 55.233253,239.37467 34.342994,156.40336 c -2.015823,-8.00639 -5.839962,-24.12794 -5.839962,-24.61972 0,-0.18604 35.341838,-0.33826 78.537428,-0.33826 74.6008,0 78.52668,0.0365 78.32306,0.72794 -0.11789,0.40036 -0.98482,4.00367 -1.9265,8.00735 -7.86221,33.42693 -19.15799,68.90435 -29.89199,93.88377 -10.42061,24.25013 -22.22463,42.29991 -32.881,50.27905 -6.60763,4.94761 -13.94972,6.91198 -20.06673,5.36885 z"
       id="path879" />
    <ellipse
       style="fill:#000000;stroke-width:1.30736"
       id="path1365"
       cx="107.1372"
       cy="111.51691"
       rx="80.047668"
       ry="106.44424" />
    <ellipse
       style="fill:#ffffff;stroke-width:0.264583"
       id="path1717"
       cx="107.7353"
       cy="97.544113"
       rx="23.294117"
       ry="22.670168" />
  </g>
</svg>
