<?xml version="1.0" encoding="UTF-8" standalone="no"?>
<!-- Generator: Adobe Illustrator 19.0.0, SVG Export Plug-In . SVG Version: 6.00 Build 0)  -->

<svg
   version="1.1"
   id="Capa_1"
   x="0px"
   y="0px"
   viewBox="0 0 60 60"
   style="enable-background:new 0 0 60 60;"
   xml:space="preserve"
   xmlns="http://www.w3.org/2000/svg"
   xmlns:svg="http://www.w3.org/2000/svg"><defs
   id="defs44" />
<path
   d="M51.914,17l-6-6H30.5V9.899c2.279-0.465,4-2.484,4-4.899c0-2.757-2.243-5-5-5s-5,2.243-5,5c0,2.414,1.721,4.434,4,4.899V11  h-7.859c-1.732,0-3.141,1.409-3.141,3.142V17h-3.414l-6,6l6,6H28.5v21h-5v4h-3v6h18v-6h-3v-4h-5V29h8.859  c1.732,0,3.141-1.409,3.141-3.142V23h3.414L51.914,17z M26.5,5c0-1.654,1.346-3,3-3s3,1.346,3,3s-1.346,3-3,3S26.5,6.654,26.5,5z   M36.5,56v2h-14v-2h1h12H36.5z M33.5,54h-8v-2h8V54z M40.5,25.858c0,0.63-0.512,1.142-1.141,1.142H14.914l-4-4l4-4H17.5h21.859  c0.629,0,1.141,0.512,1.141,1.142V23V25.858z M42.5,21v-0.858c0-1.732-1.409-3.142-3.141-3.142H19.5v-2.858  c0-0.63,0.512-1.142,1.141-1.142h24.445l4,4l-4,4H42.5z"
   id="path9" />
<g
   id="g11">
</g>
<g
   id="g13">
</g>
<g
   id="g15">
</g>
<g
   id="g17">
</g>
<g
   id="g19">
</g>
<g
   id="g21">
</g>
<g
   id="g23">
</g>
<g
   id="g25">
</g>
<g
   id="g27">
</g>
<g
   id="g29">
</g>
<g
   id="g31">
</g>
<g
   id="g33">
</g>
<g
   id="g35">
</g>
<g
   id="g37">
</g>
<g
   id="g39">
</g>
<path
   style="fill:#f2f2f2;stroke-width:0.084507"
   d="m 12.95003,24.992297 -1.964114,-1.965449 2.008805,-2.007497 2.008804,-2.007497 12.35121,0.02224 c 12.342096,0.02223 12.351386,0.02237 12.589787,0.197263 0.524494,0.384772 0.534088,0.452219 0.534088,3.754556 0,3.346614 -0.0076,3.395834 -0.582656,3.780006 l -0.287146,0.191825 H 27.261477 14.914144 Z"
   id="path200" /><path
   style="fill:#f2f2f2;stroke-width:0.084507"
   d="m 42.492052,20.091549 c -0.02911,-0.738063 -0.06885,-0.934952 -0.268678,-1.330986 -0.310132,-0.614647 -0.826464,-1.136766 -1.448726,-1.464965 l -0.507042,-0.267429 -10.37324,-0.02243 -10.373239,-0.02243 1.31e-4,-1.498693 c 1.45e-4,-1.65052 0.06068,-1.905859 0.53422,-2.253249 0.238401,-0.174892 0.247691,-0.175037 12.589787,-0.197263 l 12.351209,-0.02224 2.008805,2.007497 2.008806,2.007497 -1.964115,1.965449 -1.964114,1.965449 h -1.279822 -1.279822 z"
   id="path276" /><path
   style="fill:#f2f2f2;stroke-width:0.084507"
   d="m 25.521127,53.028169 v -0.971831 h 3.971831 3.971831 V 53.028169 54 h -3.971831 -3.971831 z"
   id="path315" /><path
   style="fill:#f2f2f2;stroke-width:0.084507"
   d="m 22.56338,57 v -0.971831 h 6.929578 6.929577 V 57 57.971831 H 29.492958 22.56338 Z"
   id="path354" /><path
   style="fill:#f2f2f2;stroke-width:0.084507"
   d="M 28.67206,7.8253059 C 27.079005,7.3084587 26.203344,5.6901182 26.688686,4.1597626 c 0.498431,-1.5716289 2.100714,-2.4450531 3.620135,-1.97338 1.37918,0.4281384 2.230977,1.6398517 2.120477,3.0164576 -0.119734,1.4916332 -1.333371,2.6668865 -2.806297,2.7175435 -0.331931,0.011416 -0.752224,-0.030606 -0.950941,-0.095078 z"
   id="path393" /></svg>
